#!OML:ASF H:\Swim 2\Project 1\Capture day 1\Session 1\male.ASF
:FULLY-SPECIFIED
:DEGREES
2512
root 7.76584 8.90245 12.2896 69.8033 6.75731 178.448
lowerback 32.982 -3.25558 15.9136
upperback -1.71987 0.750035 -11.0158
thorax -19.9188 -2.07676 -23.4719
lowerneck -1.21221 -13.9616 10.031
upperneck 40.3275 -20.8655 11.8744
head 15.1771 -1.422 2.17
rclavicle -2.06736e-014 1.5704e-014
rhumerus -4.224 -29.7438 43.066
rradius 30.2494
rwrist -2.32665
rhand -16.1332 3.3663
rfingers 7.12502
rthumb 10.0716 -26.3727
lclavicle -2.06736e-014 1.5704e-014
lhumerus -1445.4 -220.475 1163.43
lradius 15.9412
lwrist -169.156
lhand -21.7851 10.1838
lfingers 7.12502
lthumb 4.61633 400.113
rfemur 30.6649 7.72451 28.6254
rtibia 14.7683
rfoot 1.53476 -16.7219
rtoes 23.5068
lfemur 38.376 -2.39821 -30.4992
ltibia 26.3175
lfoot 23.3028 -2.42964
ltoes 60.9761
2513
root 7.77452 8.89516 12.2772 69.7255 6.68908 178.471
lowerback 33.087 -3.24621 15.6671
upperback -1.72571 0.678063 -10.9472
thorax -20.0035 -2.08386 -23.176
lowerneck -1.39486 -13.8057 10.0432
upperneck 40.297 -20.6895 11.7393
head 15.162 -1.41124 2.09963
rclavicle 1.66979e-014 -6.77856e-014
rhumerus -4.88289 -28.3467 42.8549
rradius 30.2871
rwrist -3.10832
rhand -16.4051 3.0898
rfingers 7.12502
rthumb 9.80932 -26.6617
lclavicle 1.66979e-014 -6.77856e-014
lhumerus -1445.74 -222.208 1163.3
lradius 15.2559
lwrist -167.45
lhand -21.6786 9.94592
lfingers 7.12502
lthumb 4.71909 399.873
rfemur 31.158 7.8076 28.7491
rtibia 14.8835
rfoot 1.35745 -16.9992
rtoes 23.755
lfemur 37.9128 -2.32767 -30.4353
ltibia 26.7475
lfoot 22.4713 -2.04715
ltoes 60.6177
2514
root 7.78355 8.88739 12.2619 69.5825 6.61718 178.5
lowerback 33.2567 -3.25478 15.3973
upperback -1.71857 0.582004 -10.8577
thorax -20.1101 -2.09735 -22.8231
lowerneck -1.52799 -13.606 9.99958
upperneck 40.1769 -20.4373 11.6531
head 15.0994 -1.39903 2.05925
rclavicle 6.36111e-015 -3.91606e-014
rhumerus -5.46613 -27.2882 42.5269
rradius 30.3965
rwrist -3.263
rhand -16.5074 2.92396
rfingers 7.12502
rthumb 9.71066 -26.8322
lclavicle 6.36111e-015 -3.91606e-014
lhumerus -1446.05 -224.028 1163.16
lradius 14.5824
lwrist -165.788
lhand -21.5736 9.75566
lfingers 7.12502
lthumb 4.82048 399.681
rfemur 31.7506 7.84149 28.8592
rtibia 15.0622
rfoot 1.18285 -17.256
rtoes 24.271
lfemur 37.477 -2.26799 -30.3906
ltibia 27.1941
lfoot 21.562 -1.55022
ltoes 60.1802
2515
root 7.79254 8.87959 12.245 69.4001 6.5505 178.53
lowerback 33.4636 -3.27452 15.1336
upperback -1.70289 0.47917 -10.7591
thorax -20.2239 -2.11281 -22.4586
lowerneck -1.65373 -13.3798 9.95095
upperneck 40.0281 -20.1422 11.5617
head 15.0181 -1.38195 2.01878
rclavicle -1.27222e-014 6.38099e-014
rhumerus -6.02316 -26.5184 42.1112
rradius 30.5926
rwrist -2.86281
rhand -16.4128 2.85693
rfingers 7.12502
rthumb 9.80187 -26.8949
lclavicle -1.27222e-014 6.38099e-014
lhumerus -1446.34 -225.897 1162.98
lradius 13.9138
lwrist -164.203
lhand -21.5035 9.61273
lfingers 7.12502
lthumb 4.88817 399.536
rfemur 32.4146 7.82808 28.9558
rtibia 15.2944
rfoot 1.10279 -17.4509
rtoes 24.7611
lfemur 37.0534 -2.20244 -30.338
ltibia 27.6552
lfoot 20.5985 -0.996455
ltoes 59.6235
2516
root 7.80134 8.87177 12.2258 69.175 6.4859 178.56
lowerback 33.7092 -3.30329 14.8905
upperback -1.67555 0.379006 -10.6649
thorax -20.3386 -2.12744 -22.1165
lowerneck -1.80263 -13.1376 9.92298
upperneck 39.8949 -19.8314 11.4611
head 14.9472 -1.35295 1.97347
rclavicle -1.07344e-013 7.43455e-014
rhumerus -6.58686 -25.7317 41.6781
rradius 30.8352
rwrist -2.26138
rhand -16.1829 2.89439
rfingers 7.12502
rthumb 10.0237 -26.8469
lclavicle -1.07344e-013 7.43455e-014
lhumerus -1446.62 -227.811 1162.77
lradius 13.2244
lwrist -162.655
lhand -21.4696 9.52171
lfingers 7.12502
lthumb 4.92091 399.445
rfemur 33.1615 7.78277 29.0437
rtibia 15.5619
rfoot 1.04985 -17.5973
rtoes 25.252
lfemur 36.6549 -2.1477 -30.2941
ltibia 28.1277
lfoot 19.627 -0.295826
ltoes 59.0877
